<svg xmlns="http://www.w3.org/2000/svg" width="211.533" height="89" viewBox="0 0 211.533 89">
  <g id="LOGO" transform="translate(-760.61 -314.12)" style="isolation: isolate">
    <text id="P" transform="translate(760.61 386.12)" font-size="80" font-family="ArialMT, Arial"><tspan x="0" y="0">P</tspan></text>
    <path id="Path_1" data-name="Path 1" d="M1078.427,456.159a23.991,23.991,0,0,1,9.084,1.664,20.457,20.457,0,0,1,7.07,4.7,21.161,21.161,0,0,1,4.582,7.264,27.893,27.893,0,0,1,0,18.757,21.081,21.081,0,0,1-4.562,7.244,20.125,20.125,0,0,1-7.068,4.66,24.41,24.41,0,0,1-9.105,1.645,24,24,0,0,1-9.339-1.743,20.566,20.566,0,0,1-11.572-11.885,24.121,24.121,0,0,1-1.566-8.732,28.191,28.191,0,0,1,1.643-9.946,20.768,20.768,0,0,1,4.622-7.4,20.06,20.06,0,0,1,7.106-4.621A24.94,24.94,0,0,1,1078.427,456.159Zm-.079,39.942a15.56,15.56,0,0,0,6.188-1.175,12.734,12.734,0,0,0,4.64-3.348,15.237,15.237,0,0,0,2.938-5.306,24.07,24.07,0,0,0,1.115-7.088,22.243,22.243,0,0,0-1.077-7.166,15.317,15.317,0,0,0-3.016-5.345,12.98,12.98,0,0,0-4.64-3.329,15.1,15.1,0,0,0-5.993-1.155,16.894,16.894,0,0,0-6.088,1.057,12.408,12.408,0,0,0-4.759,3.231,15.135,15.135,0,0,0-3.112,5.482,24.643,24.643,0,0,0-1.115,7.851,19.865,19.865,0,0,0,1.038,6.578,15.06,15.06,0,0,0,2.975,5.149,13.28,13.28,0,0,0,4.7,3.368A15.477,15.477,0,0,0,1078.347,496.1Z" transform="translate(-238.246 -114.581)" fill="red" fill-rule="evenodd"/>
    <text id="SE" transform="translate(866.143 386.12)" font-size="79" font-family="ArialMT, Arial"><tspan x="0" y="0">SE</tspan></text>
  </g>
</svg>
